<?xml version="1.0" encoding="utf-8"?>
<!-- Generator: Adobe Illustrator 24.0.0, SVG Export Plug-In . SVG Version: 6.00 Build 0)  -->
<svg version="1.1" id="Layer_2" xmlns="http://www.w3.org/2000/svg" xmlns:xlink="http://www.w3.org/1999/xlink" x="0px" y="0px"
	 viewBox="0 0 512 512" enable-background="new 0 0 512 512" xml:space="preserve">
<g>
	<g>
		<circle fill="#80D6FB" cx="256" cy="256" r="233"/>
	</g>
	<path fill="#46BEE8" d="M429.948,82.052C383.485,35.588,321.709,10,256,10S128.515,35.588,82.052,82.052
		C35.588,128.515,10,190.291,10,256s25.588,127.485,72.052,173.948C128.515,476.412,190.291,502,256,502
		s127.485-25.588,173.948-72.052C476.411,383.485,502,321.709,502,256S476.411,128.515,429.948,82.052z M36.395,269h81.18
		c0.802,27.949,4.184,55.051,9.936,80.37H56.827C45.226,324.72,38.069,297.586,36.395,269z M269,136.63v-99.11
		c23.808,5.569,46.295,26.344,64.382,59.893c6.47,12.002,12.11,25.156,16.871,39.217H269z M357.796,162.63
		c6.143,25.037,9.764,52.191,10.617,80.37H269v-80.37H357.796z M243,37.521v99.11h-81.253c4.761-14.061,10.401-27.215,16.871-39.217
		C196.705,63.865,219.192,43.09,243,37.521z M243,162.63V243h-99.413c0.853-28.179,4.474-55.333,10.617-80.37H243z M117.574,243
		h-81.18c1.674-28.586,8.831-55.72,20.433-80.37h70.683C121.759,187.949,118.376,215.051,117.574,243z M143.587,269H243v80.37
		h-88.796C148.06,324.333,144.439,297.179,143.587,269z M243,375.37v99.11c-23.808-5.57-46.295-26.344-64.382-59.893
		c-6.47-12.002-12.11-25.156-16.871-39.217H243z M269,474.479v-99.11h81.253c-4.761,14.061-10.401,27.215-16.871,39.217
		C315.295,448.135,292.808,468.91,269,474.479z M269,349.37V269h99.413c-0.853,28.179-4.474,55.333-10.617,80.37H269z M394.426,269
		h81.18c-1.674,28.586-8.831,55.72-20.433,80.37H384.49C390.242,324.051,393.624,296.949,394.426,269z M394.426,243
		c-0.802-27.949-4.184-55.051-9.936-80.37h70.683c11.602,24.649,18.758,51.783,20.433,80.37H394.426z M440.714,136.63h-63.159
		c-5.744-18.608-12.871-35.943-21.288-51.555c-7.309-13.557-15.365-25.406-24.021-35.444
		C377.082,66.249,415.069,97.082,440.714,136.63z M179.753,49.631c-8.656,10.038-16.712,21.887-24.021,35.444
		c-8.417,15.613-15.544,32.947-21.288,51.555H71.286C96.931,97.082,134.918,66.249,179.753,49.631z M71.286,375.37h63.159
		c5.744,18.608,12.871,35.943,21.288,51.555c7.309,13.557,15.365,25.406,24.021,35.444
		C134.918,445.751,96.931,414.918,71.286,375.37z M332.247,462.369c8.656-10.038,16.712-21.887,24.021-35.444
		c8.417-15.613,15.544-32.947,21.288-51.555h63.159C415.069,414.918,377.082,445.751,332.247,462.369z"/>
</g>
</svg>
